<svg id="Слой_1" data-name="Слой 1" xmlns="http://www.w3.org/2000/svg" viewBox="0 0 211.24 111.12"><defs><style>.cls-1{fill:#fff;}</style></defs><title>Logo_Oksana_white</title><path class="cls-1" d="M496.39,209.42l-35,74.47h-8l.34-.71,35-74.47h8Zm-36.83,28.81c0,17.44-4.15,32-12,42.11-7.27,9.38-17.57,14.55-29,14.55S397,289.49,389.9,279.7s-11-23.56-11-39.43c0-33.27,16.86-56.5,41-56.5C443.6,183.77,459.56,205.65,459.56,238.23ZM439.1,269.56c4.6-7.79,7.13-18.7,7.13-30.7,0-20.43-8.42-42.41-26.89-42.41-18.67,0-27,21.85-27,43.51,0,11.39,2.52,21.91,7.11,29.62,4.91,8.26,11.75,12.63,19.78,12.63S434.22,277.83,439.1,269.56Zm51.61-36.82v6l37.63,11.05-37.63,11v5.93l47-14v-5.94ZM326.46,255l47,14v-5.93l-37.63-11L373.45,241v-6l-47,14.09Z" transform="translate(-326.46 -183.77)"/></svg>