<svg id="Слой_1" data-name="Слой 1" xmlns="http://www.w3.org/2000/svg" viewBox="0 0 108.5 54.84"><title>Logo_SVG_Favicon</title><path d="M334,233l10.86,6.54L342.24,244l-17.9-10.55v-1.48l18-11.23L344,223.8,334,229.91l-3.83,1.63Zm56.75,21,2.75,1.24,17-39.35-2.8-1.19Zm24.2-33.29-2.61,4.45,10.86,6.49,3.78,1.48-3.83,1.63-9.93,6.11,1.68,3.1,17.95-11.22v-1.48Zm-21.67,17.46a25.29,25.29,0,0,1-4.32,8.58,19.76,19.76,0,0,1-7.07,5.63,24.51,24.51,0,0,1-19.44,0,20,20,0,0,1-7.1-5.63,24.82,24.82,0,0,1-4.36-8.58,40.23,40.23,0,0,1,0-21.55,24.86,24.86,0,0,1,4.36-8.57,19.93,19.93,0,0,1,7.1-5.63,24.4,24.4,0,0,1,19.44,0A19.66,19.66,0,0,1,389,208a25.33,25.33,0,0,1,4.32,8.57,40.23,40.23,0,0,1,0,21.55Zm-9.92-10.77a56.59,56.59,0,0,0-.64-8.84,25.93,25.93,0,0,0-2-7,11.86,11.86,0,0,0-3.62-4.62,8.83,8.83,0,0,0-5.46-1.68,8,8,0,0,0-5.16,1.68,11.67,11.67,0,0,0-3.32,4.62,27,27,0,0,0-1.74,7,73.36,73.36,0,0,0-.5,8.84,54,54,0,0,0,.67,8.83,25.4,25.4,0,0,0,2.11,7,12.31,12.31,0,0,0,3.69,4.62,8.72,8.72,0,0,0,5.39,1.68,7.37,7.37,0,0,0,4.89-1.68,12.07,12.07,0,0,0,3.29-4.62,27.16,27.16,0,0,0,1.84-7A63.72,63.72,0,0,0,383.35,227.38Z" transform="translate(-324.34 -200.38)"/></svg>