<?xml version="1.0" encoding="iso-8859-1"?>
<!-- Generator: Adobe Illustrator 18.0.0, SVG Export Plug-In . SVG Version: 6.00 Build 0)  -->
<!DOCTYPE svg PUBLIC "-//W3C//DTD SVG 1.1//EN" "http://www.w3.org/Graphics/SVG/1.1/DTD/svg11.dtd">
<svg version="1.1" id="Capa_1" xmlns="http://www.w3.org/2000/svg" xmlns:xlink="http://www.w3.org/1999/xlink" x="0px" y="0px"
	 viewBox="0 0 474.732 474.732" style="enable-background:new 0 0 474.732 474.732;" xml:space="preserve">
<g>
	<path d="M240.05,163.931c-61.156,0-110.91,49.754-110.91,110.91s49.754,110.91,110.91,110.91c61.156,0,110.91-49.754,110.91-110.91
		S301.206,163.931,240.05,163.931z M331.012,278.841h11.863c-0.975,25.362-11.168,48.398-27.322,65.847l-8.354-8.355
		c-1.562-1.562-4.094-1.563-5.657,0c-1.563,1.562-1.563,4.095,0,5.656l8.355,8.355c-17.449,16.153-40.484,26.347-65.846,27.321
		v-11.862c0-2.209-1.791-4-4-4s-4,1.791-4,4v11.862c-25.362-0.975-48.398-11.168-65.846-27.322l8.355-8.355
		c1.562-1.562,1.562-4.095,0-5.656c-1.562-1.563-4.094-1.563-5.657,0l-8.354,8.355c-16.153-17.449-26.347-40.484-27.322-65.847
		h11.863c2.209,0,4-1.791,4-4s-1.791-4-4-4h-11.863c0.975-25.362,11.168-48.398,27.321-65.846l8.355,8.355
		c0.781,0.781,1.805,1.172,2.829,1.172c1.023,0,2.047-0.391,2.828-1.172c1.563-1.562,1.563-4.095,0-5.656l-8.355-8.356
		c17.449-16.154,40.485-26.347,65.847-27.322v11.863c0,2.209,1.791,4,4,4s4-1.791,4-4v-11.863
		c25.362,0.975,48.398,11.169,65.847,27.322l-8.355,8.356c-1.562,1.562-1.562,4.095,0,5.656c0.781,0.781,1.804,1.172,2.828,1.172
		s2.047-0.391,2.829-1.172l8.355-8.355c16.153,17.449,26.347,40.484,27.321,65.846h-11.863c-2.209,0-4,1.791-4,4
		S328.803,278.841,331.012,278.841z"/>
	<path d="M247.812,258.323c-9.108-4.281-20-0.353-24.281,8.756c-2.074,4.412-2.305,9.368-0.651,13.954
		c1.654,4.586,4.995,8.254,9.407,10.327c2.467,1.159,5.104,1.743,7.751,1.743c2.087,0,4.181-0.363,6.203-1.092
		c4.586-1.654,8.254-4.995,10.327-9.407c2.074-4.412,2.305-9.367,0.651-13.954C255.565,264.064,252.224,260.396,247.812,258.323z
		 M249.328,279.202c-1.165,2.479-3.225,4.354-5.801,5.283c-2.576,0.931-5.359,0.8-7.838-0.365s-4.355-3.225-5.284-5.801
		c-0.929-2.575-0.799-5.359,0.366-7.838c1.744-3.711,5.442-5.891,9.294-5.891c1.458,0,2.939,0.313,4.344,0.973
		c2.478,1.165,4.354,3.225,5.284,5.801C250.622,273.94,250.492,276.724,249.328,279.202z"/>
	<path d="M301.184,299.152l-31.585-14.843c2.096-6.498,1.998-13.465-0.357-19.994c-1.647-4.568-4.285-8.594-7.691-11.859
		l4.684-9.966l10.68,0.464c1.075,0.056,2.117-0.34,2.901-1.07c0.785-0.732,1.242-1.748,1.271-2.82l1.201-45.489
		c0.042-1.588-0.86-3.05-2.297-3.726c-1.438-0.676-3.139-0.438-4.334,0.609l-34.253,29.956c-0.807,0.706-1.297,1.707-1.36,2.777
		c-0.063,1.071,0.308,2.122,1.027,2.917l7.173,7.927l-4.684,9.966c-4.686-0.538-9.469,0.001-14.036,1.648
		c-6.528,2.355-11.954,6.724-15.62,12.485l-31.588-14.845c-2-0.941-4.382-0.081-5.321,1.919c-0.939,1.999-0.081,4.382,1.919,5.321
		l31.588,14.844c-2.096,6.498-1.998,13.466,0.356,19.994c1.647,4.568,4.285,8.594,7.691,11.859l-4.683,9.966l-10.68-0.464
		c-1.077-0.056-2.117,0.34-2.901,1.07c-0.785,0.732-1.242,1.748-1.271,2.82l-1.201,45.488c-0.042,1.588,0.859,3.05,2.297,3.726
		c0.543,0.255,1.124,0.38,1.7,0.38c0.95,0,1.89-0.338,2.634-0.989l34.253-29.955c0.807-0.706,1.297-1.707,1.36-2.777
		c0.063-1.071-0.308-2.122-1.027-2.917l-7.172-7.927l4.687-9.974c1.154,0.13,2.308,0.198,3.458,0.198
		c10.386,0,20.39-5.246,26.186-14.328l31.594,14.848c0.55,0.259,1.128,0.381,1.699,0.381c1.502,0,2.941-0.851,3.623-2.3
		C304.042,302.475,303.183,300.092,301.184,299.152z M263.921,234.383c-0.127-0.007-0.252,0.004-0.378,0.01l10.228-21.37
		l-0.575,21.763L263.921,234.383z M266.988,208.666l-10.712,22.381c-0.097-0.139-0.199-0.276-0.314-0.404l-6.23-6.885
		L266.988,208.666z M256.3,235.699l3.5,1.675l-4.825,10.268c-0.565-0.309-1.138-0.608-1.726-0.885
		c-0.589-0.277-1.186-0.528-1.785-0.766L256.3,235.699z M216.983,315.249l-10.68,22.313l0.598-22.662
		C206.902,314.899,216.719,315.29,216.983,315.249z M213.811,340.406l10.264-21.445c0.022,0.026,0.04,0.055,0.063,0.081l6.229,6.885
		L213.811,340.406z M223.607,314.394l-3.5-1.675l5.017-10.676c0.565,0.309,1.138,0.608,1.727,0.885
		c0.59,0.277,1.186,0.53,1.784,0.767L223.607,314.394z M260.895,284.639c-5.402,11.495-19.148,16.45-30.642,11.049
		c-5.568-2.616-9.784-7.245-11.871-13.032c-2.087-5.788-1.795-12.041,0.821-17.609c2.617-5.567,7.245-9.783,13.033-11.87
		c2.551-0.921,5.193-1.378,7.827-1.378c3.341,0,6.669,0.736,9.782,2.199c5.568,2.616,9.784,7.245,11.871,13.032
		C263.803,272.817,263.511,279.07,260.895,284.639z"/>
	<path d="M399.131,180.7c-3.07-19.609-7.958-42.119-18.592-42.119c-5.586,0-12.748,4.787-18.592,42.119
		c-1.305,8.335-2.411,17.589-3.313,27.51c-4.095-7.293-8.812-14.121-14.067-20.433c12.661-20.682,25.966-54.214,21.523-100.22
		c-0.2-2.066-1.913-3.643-4.024-3.615c-31.985,0.339-59.729,13.411-82.462,38.856c-5.017,5.621-9.743,11.819-14.079,18.45
		c-2.143-0.407-4.304-0.753-6.476-1.057v-14.298c4.704-4.354,7.91-10.298,8.764-16.97C286.521,98.745,298.049,79.44,298.049,58
		c0-31.981-26.019-58-58-58s-58,26.019-58,58c0,21.441,11.529,40.747,30.239,50.924c0.854,6.669,4.059,12.612,8.761,16.965v14.295
		c-16.611,2.333-32.269,7.673-46.402,15.459l-38.038-43.875c1.784-2.579,2.835-5.701,2.835-9.067
		c0-8.814-7.171-15.985-15.985-15.985c-8.814,0-15.985,7.171-15.985,15.985s7.171,15.985,15.985,15.985
		c2.552,0,4.957-0.616,7.1-1.684l37.086,42.778c-2.796,1.766-5.524,3.63-8.178,5.589l-19.632-9.078
		c0.585-3.168,0.206-6.433-1.145-9.433v-0.001c-3.621-8.035-13.103-11.629-21.141-8.008c-3.893,1.754-6.87,4.919-8.383,8.912
		s-1.379,8.336,0.375,12.229c1.754,3.894,4.918,6.87,8.912,8.383c1.841,0.697,3.757,1.045,5.669,1.045
		c2.234,0,4.462-0.475,6.56-1.419c2.289-1.031,4.248-2.56,5.792-4.448l15.957,7.379c-29.561,24.965-48.372,62.28-48.372,103.912
		c0,17.118,3.188,33.504,8.987,48.606c-10.232,9.608-47.281,49.539-43.251,120.671c0.118,2.073,1.802,3.712,3.878,3.771
		c1.151,0.033,2.293,0.051,3.435,0.05c27.832-0.001,52.767-9.93,74.268-29.556c1.962,18.467,7.801,36.684,17.424,54.269
		c0.722,1.32,2.089,2.081,3.511,2.081c0.54,0,1.088-0.11,1.611-0.341c26.549-11.697,45.087-33.83,53.783-64.127
		c4.067,0.368,8.183,0.566,12.344,0.566c49.592,0,94.68-26.798,118.585-69.365c0.902,9.922,2.008,19.179,3.313,27.515
		c3.07,19.609,7.957,42.119,18.592,42.119c5.586,0,12.748-4.787,18.592-42.119c3.941-25.179,6.112-58.612,6.112-94.141
		S403.072,205.879,399.131,180.7z M115.473,102.701c0-4.403,3.582-7.985,7.985-7.985c4.403,0,7.985,3.582,7.985,7.985
		s-3.582,7.985-7.985,7.985C119.055,110.687,115.473,107.104,115.473,102.701z M131.582,156.252
		c-0.755,1.994-2.243,3.575-4.188,4.452c-1.944,0.875-4.114,0.942-6.108,0.187c-1.995-0.756-3.576-2.242-4.452-4.188
		c-0.876-1.944-0.943-4.113-0.187-6.108c0.755-1.994,2.243-3.575,4.188-4.451c1.062-0.479,2.173-0.705,3.269-0.705
		c3.046,0,5.961,1.752,7.292,4.704C132.272,152.088,132.338,154.257,131.582,156.252z M285.571,128.126
		c20.285-22.705,44.787-34.831,72.877-36.083c3.078,40.416-8.188,70.305-19.453,89.469c-8.245-8.743-17.578-16.336-27.756-22.583
		l4.217-5.349l23.155-0.882c2.208-0.084,3.929-1.941,3.845-4.149s-1.969-3.921-4.149-3.845l-16.344,0.622l10.868-13.786
		l17.288-2.893c2.179-0.365,3.649-2.427,3.285-4.605c-0.365-2.179-2.428-3.646-4.605-3.285l-8.601,1.44l8.68-11.01
		c1.368-1.735,1.07-4.25-0.665-5.618c-1.736-1.367-4.251-1.07-5.618,0.665l-10.167,12.896l-3.109-11.474
		c-0.579-2.133-2.775-3.399-4.907-2.814c-2.132,0.577-3.393,2.774-2.815,4.906l4.662,17.206l-11.624,14.745l-6.453-16.457
		c-0.807-2.057-3.125-3.071-5.185-2.264c-2.057,0.807-3.07,3.127-2.264,5.184l8.163,20.817l-4.682,5.94
		c-9.541-5.101-19.709-9.08-30.32-11.798C277.545,137.766,281.457,132.736,285.571,128.126z M218.849,87.092
		c-9.206-6.738-14.811-17.578-14.811-29.092c0-19.855,16.154-36.01,36.01-36.01c19.861,0,36.02,16.154,36.02,36.01
		c0,11.521-5.607,22.361-14.817,29.093c-5.138-5.959-12.734-9.743-21.201-9.743C231.583,77.351,223.988,81.134,218.849,87.092z
		 M190.049,58c0-27.57,22.43-50,50-50s50,22.43,50,50c0,17.099-8.51,32.621-22.555,41.797c-0.42-2.078-1.076-4.069-1.929-5.954
		C277.057,85.64,284.069,72.244,284.069,58c0-24.267-19.747-44.01-44.02-44.01c-24.268,0-44.01,19.743-44.01,44.01
		c0,14.239,7.009,27.634,18.497,35.843c-0.854,1.885-1.509,3.877-1.929,5.956C198.56,90.623,190.049,75.1,190.049,58z
		 M220.051,105.35c0-11.027,8.972-19.999,19.999-19.999s19.999,8.972,19.999,19.999s-8.971,19.999-19.999,19.999
		S220.051,116.377,220.051,105.35z M229.049,131.093c3.379,1.45,7.098,2.255,11.001,2.255c3.903,0,7.62-0.805,10.999-2.254v8.21
		c-3.638-0.293-7.305-0.454-11-0.454c-3.703,0-7.371,0.155-11,0.446V131.093z M77.608,439.938
		c-2.229-61.271,27.339-97.094,38.764-108.58c5.211,11.357,11.943,21.875,19.931,31.298l-1.944,2.332l-23.506-8.736
		c-2.071-0.771-4.374,0.285-5.143,2.355c-0.77,2.071,0.285,4.373,2.356,5.143l20.862,7.753l-9.736,11.679l-20.559-6.305
		c-2.112-0.648-4.349,0.54-4.997,2.651c-0.648,2.112,0.54,4.35,2.651,4.997l17.349,5.321l-9.965,11.953l-12.266-2.985
		c-2.145-0.523-4.31,0.794-4.833,2.941c-0.522,2.146,0.794,4.31,2.941,4.832l8.451,2.057l-13.27,15.918
		c-1.415,1.697-1.186,4.22,0.511,5.634c0.748,0.624,1.656,0.928,2.56,0.928c1.146,0,2.283-0.49,3.074-1.438l12.318-14.776
		l1.418,5.75c0.45,1.823,2.083,3.043,3.881,3.043c0.317,0,0.639-0.038,0.961-0.117c2.145-0.529,3.455-2.697,2.926-4.842
		l-2.827-11.461l8.671-10.402l2.34,12.554c0.358,1.924,2.039,3.268,3.928,3.268c0.243,0,0.49-0.022,0.737-0.068
		c2.172-0.405,3.604-2.494,3.199-4.666l-3.554-19.065l9.098-10.913l5.694,18.867c0.522,1.73,2.11,2.846,3.828,2.846
		c0.383,0,0.772-0.056,1.157-0.172c2.115-0.638,3.312-2.87,2.674-4.984l-7.218-23.916l1.633-1.959
		c7.385,7.737,15.674,14.604,24.692,20.437c-4.535,6.428-9.413,12.359-14.542,17.662C130.688,428.65,105.726,439.797,77.608,439.938
		z M174.06,465.508c-9.139-17.69-14.253-35.987-15.244-54.459c5.091-5.396,9.938-11.355,14.444-17.786
		c5.315,3.01,10.85,5.674,16.577,7.958l-0.029,0.093l-15.241,3.488c-2.153,0.493-3.5,2.639-3.007,4.792
		c0.493,2.153,2.636,3.495,4.792,3.007l10.694-2.448l-4.398,14.076l-10.746,1.512c-2.188,0.308-3.711,2.331-3.404,4.519
		c0.308,2.188,2.33,3.712,4.518,3.403l6.992-0.984l-5.268,16.86c-0.659,2.109,0.516,4.353,2.625,5.012
		c0.397,0.124,0.799,0.183,1.194,0.183c1.703,0,3.282-1.097,3.817-2.808l5.216-16.695l2.572,3.738
		c0.775,1.128,2.026,1.733,3.299,1.733c0.782,0,1.571-0.229,2.264-0.704c1.82-1.252,2.28-3.743,1.028-5.563l-6.13-8.911l4.29-13.731
		l7.544,8.553c0.791,0.896,1.894,1.354,3.001,1.354c0.94,0,1.884-0.329,2.645-1c1.657-1.462,1.815-3.989,0.354-5.646l-9.258-10.496
		c6.611,2.086,13.438,3.682,20.439,4.74C211.808,435.642,196.508,454.531,174.06,465.508z M240.049,402.831
		c-70.574,0-127.99-57.416-127.99-127.99s57.416-127.99,127.99-127.99c22.664,0,44.321,5.949,63.186,16.647
		c0.06,0.035,0.118,0.073,0.178,0.104c23.545,13.402,42.71,34.219,54.009,60.143c-1.042,15.988-1.588,33.278-1.588,51.096
		c0,17.82,0.547,35.111,1.588,51.099C337.044,372.677,291.082,402.831,240.049,402.831z M363.834,274.841
		c0-33.735,1.993-65.784,5.611-90.241c1.814-12.26,3.717-20.579,5.433-26.231c6.641,21.629,11.031,66.572,11.031,116.472
		c0,49.892-4.391,94.834-11.031,116.47c-1.716-5.651-3.618-13.97-5.432-26.228C365.827,340.625,363.834,308.576,363.834,274.841z
		 M391.632,365.083c-4.731,31.976-10.075,37.213-11.094,37.938c-0.204-0.145-0.583-0.477-1.094-1.161
		c8.697-18.795,14.464-68.977,14.464-127.018c0-58.049-5.768-108.231-14.464-127.019c0.51-0.684,0.89-1.016,1.094-1.161
		c1.019,0.725,6.363,5.962,11.094,37.938c3.618,24.458,5.611,56.507,5.611,90.242S395.25,340.625,391.632,365.083z"/>
</g>
<g>
</g>
<g>
</g>
<g>
</g>
<g>
</g>
<g>
</g>
<g>
</g>
<g>
</g>
<g>
</g>
<g>
</g>
<g>
</g>
<g>
</g>
<g>
</g>
<g>
</g>
<g>
</g>
<g>
</g>
</svg>
